<svg width="27" height="27" viewBox="0 0 27 27" fill="none" xmlns="http://www.w3.org/2000/svg">
<path id="Vector" d="M13.5 0C10.83 0 8.21987 0.791761 5.99981 2.27516C3.77974 3.75856 2.04941 5.86697 1.02763 8.33377C0.00584911 10.8006 -0.261496 13.515 0.259405 16.1337C0.780305 18.7525 2.06606 21.1579 3.95406 23.0459C5.84207 24.9339 8.24754 26.2197 10.8663 26.7406C13.485 27.2615 16.1994 26.9942 18.6662 25.9724C21.133 24.9506 23.2414 23.2203 24.7248 21.0002C26.2082 18.7801 27 16.17 27 13.5C26.9958 9.92087 25.5721 6.48953 23.0413 3.9587C20.5105 1.42787 17.0791 0.00420333 13.5 0ZM24.296 8.47059H18.9781C18.3994 6.07022 17.3439 3.81073 15.8744 1.82647C17.6987 2.20136 19.4102 2.99732 20.8723 4.15086C22.3345 5.30441 23.5069 6.78364 24.296 8.47059ZM25.4118 13.5C25.4127 14.6657 25.2419 15.8252 24.9049 16.9412H19.305C19.6827 14.6626 19.6827 12.3374 19.305 10.0588H24.9049C25.2419 11.1748 25.4127 12.3343 25.4118 13.5ZM13.5 25.4118C13.467 25.4119 13.4343 25.4051 13.4042 25.3916C13.3741 25.3781 13.3472 25.3584 13.3253 25.3337C11.6206 23.4979 10.3685 21.1407 9.66177 18.5294H17.3382C16.6315 21.1407 15.3794 23.4979 13.6747 25.3337C13.6528 25.3584 13.6259 25.3781 13.5958 25.3916C13.5657 25.4051 13.533 25.4119 13.5 25.4118ZM9.30574 16.9412C8.89811 14.6652 8.89811 12.3348 9.30574 10.0588H17.6943C18.1019 12.3348 18.1019 14.6652 17.6943 16.9412H9.30574ZM1.58824 13.5C1.58735 12.3343 1.75815 11.1748 2.09515 10.0588H7.695C7.31732 12.3374 7.31732 14.6626 7.695 16.9412H2.09515C1.75815 15.8252 1.58735 14.6657 1.58824 13.5ZM13.5 1.58824C13.533 1.58805 13.5657 1.59493 13.5958 1.60839C13.6259 1.62186 13.6528 1.64161 13.6747 1.66632C15.3794 3.50206 16.6315 5.85926 17.3382 8.47059H9.66177C10.3685 5.85926 11.6206 3.50206 13.3253 1.66632C13.3472 1.64161 13.3741 1.62186 13.4042 1.60839C13.4343 1.59493 13.467 1.58805 13.5 1.58824ZM11.1256 1.82647C9.65611 3.81073 8.60063 6.07022 8.02192 8.47059H2.70398C3.49313 6.78364 4.66553 5.30441 6.12769 4.15086C7.58985 2.99732 9.3013 2.20136 11.1256 1.82647ZM2.70398 18.5294H8.02192C8.60063 20.9298 9.65611 23.1893 11.1256 25.1735C9.3013 24.7986 7.58985 24.0027 6.12769 22.8491C4.66553 21.6956 3.49313 20.2164 2.70398 18.5294ZM15.8744 25.1735C17.3439 23.1893 18.3994 20.9298 18.9781 18.5294H24.296C23.5069 20.2164 22.3345 21.6956 20.8723 22.8491C19.4102 24.0027 17.6987 24.7986 15.8744 25.1735Z" fill="#222222"/>
</svg>
